<?xml version="1.0" encoding="UTF-8" standalone="no"?>
<svg
   xmlns:dc="http://purl.org/dc/elements/1.1/"
   xmlns:cc="http://creativecommons.org/ns#"
   xmlns:rdf="http://www.w3.org/1999/02/22-rdf-syntax-ns#"
   xmlns:svg="http://www.w3.org/2000/svg"
   xmlns="http://www.w3.org/2000/svg"
   xmlns:sodipodi="http://sodipodi.sourceforge.net/DTD/sodipodi-0.dtd"
   xmlns:inkscape="http://www.inkscape.org/namespaces/inkscape"
   sodipodi:docname="Logo_IUT1_2020_BLANC.svg"
   inkscape:version="1.0 (4035a4fb49, 2020-05-01)"
   id="svg232"
   version="1.1"
   viewBox="0 0 80.320099 52.521912"
   height="52.521912mm"
   width="80.320099mm">
  <defs
     id="defs226" />
  <sodipodi:namedview
     inkscape:window-maximized="0"
     inkscape:window-y="1459"
     inkscape:window-x="166"
     inkscape:window-height="1028"
     inkscape:window-width="1588"
     showgrid="false"
     inkscape:document-rotation="0"
     inkscape:current-layer="layer1"
     inkscape:document-units="mm"
     inkscape:cy="557.18265"
     inkscape:cx="394.50715"
     inkscape:zoom="0.35"
     inkscape:pageshadow="2"
     inkscape:pageopacity="0.0"
     borderopacity="1.0"
     bordercolor="#666666"
     pagecolor="#ffffff"
     id="base" />
  <metadata
     id="metadata229">
    <rdf:RDF>
      <cc:Work
         rdf:about="">
        <dc:format>image/svg+xml</dc:format>
        <dc:type
           rdf:resource="http://purl.org/dc/dcmitype/StillImage" />
        <dc:title></dc:title>
      </cc:Work>
    </rdf:RDF>
  </metadata>
  <g
     transform="translate(-1.453317,-0.74542436)"
     id="layer1"
     inkscape:groupmode="layer"
     inkscape:label="Calque 1">
    <g
       transform="matrix(0.03527778,0,0,-0.03527778,1.453317,53.267336)"
       id="g262">
      <path
         id="path264"
         style="fill:#ffffff;fill-opacity:1;fill-rule:nonzero;stroke:none"
         d="M 5.83203,1302.95 H 98.8125 V 736.309 H 5.83203 v 566.641" />
      <path
         id="path266"
         style="fill:#ffffff;fill-opacity:1;fill-rule:nonzero;stroke:none"
         d="m 212.473,948.277 v 354.673 h 93.558 V 953.945 c 0,-83.668 55.574,-138.785 134.164,-138.785 77.996,0 133.582,55.117 133.582,138.785 V 1302.95 H 667.34 V 948.277 c 0,-130.679 -97.152,-222.613 -227.145,-222.613 -130.57,0 -227.722,91.934 -227.722,222.613" />
      <path
         id="path268"
         style="fill:#ffffff;fill-opacity:1;fill-rule:nonzero;stroke:none"
         d="M 1151.63,1216.21 H 985.488 V 736.309 H 892.512 V 1216.21 H 726.371 v 86.74 h 425.259 v -86.74" />
      <path
         id="path270"
         style="fill:#ffffff;fill-opacity:1;fill-rule:nonzero;stroke:none"
         d="M 1375.02,1299.77 V 736.309 h -90.18 v 481.061 h -99.56 v 82.4 h 189.74" />
      <path
         id="path272"
         style="fill:#ffffff;fill-opacity:1;fill-rule:nonzero;stroke:none"
         d="M 351.34,459.41 C 349.184,355.078 277.988,281.441 177.813,281.441 75.7617,281.441 1.76953,357.18 1.76953,460.629 c 0,103.047 74.25777,178.828 175.14047,178.828 83.457,0 153.613,-52.359 168.93,-126.309 h -44.832 c -14.871,50.133 -64.461,83.731 -123.192,83.731 -76.66,0 -131.6597,-56.57 -131.6597,-136.25 0,-80.66 53.5117,-136.609 131.6597,-136.609 63.766,0 113.668,37.652 126.172,94.179 H 165.359 v 41.223 L 351.34,459.41" />
      <path
         id="path274"
         style="fill:#ffffff;fill-opacity:1;fill-rule:nonzero;stroke:none"
         d="M 561.891,556.238 V 516.375 H 534.57 c -48.984,0 -76.55,-31.754 -76.55,-83.746 v -145.41 h -42.125 v 267.625 h 29.91 l 6.851,-40.742 c 18.942,27.367 47,42.136 85.532,42.136 h 23.703" />
      <path
         id="path276"
         style="fill:#ffffff;fill-opacity:1;fill-rule:nonzero;stroke:none"
         d="m 714.125,520.84 c -48.598,0 -84.512,-30.578 -93.223,-77.168 h 185.86 c -9.043,47.633 -45.27,77.168 -92.629,77.168 z M 848.09,404.711 H 619.938 c 6.621,-49.563 43.5,-82.133 94.195,-82.133 37.023,0 66.808,17.313 83.316,46.223 h 44.43 c -22.645,-55.211 -69.707,-87.442 -127.746,-87.442 -77.641,0 -136.488,59.969 -136.488,139.711 0,79.668 58.847,139.637 136.488,139.637 81.203,0 134.859,-62.598 134.859,-140.766 0,-5.07 -0.453,-10.171 -0.902,-15.23" />
      <path
         id="path278"
         style="fill:#ffffff;fill-opacity:1;fill-rule:nonzero;stroke:none"
         d="M 1149.25,447.531 V 287.219 h -42.13 v 150.359 c 0,54.289 -25.49,84.613 -72.03,84.613 -45.77,0 -80.988,-38.742 -80.988,-88.961 V 287.219 h -42.125 v 267.625 h 29.914 l 8.203,-41.949 c 20.187,29.789 54.406,47.808 95.856,47.808 63.57,0 103.3,-47.769 103.3,-113.172" />
      <path
         id="path280"
         style="fill:#ffffff;fill-opacity:1;fill-rule:nonzero;stroke:none"
         d="m 1350.88,322.121 c 57.29,0 98.86,41.617 98.86,98.899 0,57.289 -41.57,98.91 -98.86,98.91 -57.28,0 -98.86,-41.578 -98.86,-98.899 0,-57.293 41.62,-98.902 98.85,-98.902 z m -141.9,98.91 c 0,80.696 60.84,139.676 141.89,139.676 81.11,0 141.9,-59.473 141.9,-139.676 0,-80.203 -60.79,-139.672 -141.9,-139.672 -81.05,0 -141.89,59.469 -141.89,139.672" />
      <path
         id="path282"
         style="fill:#ffffff;fill-opacity:1;fill-rule:nonzero;stroke:none"
         d="m 1792.95,421.031 c 0,56.918 -41.4,98.907 -98.15,98.907 -56.66,0 -98.64,-42.516 -98.64,-98.907 0,-55.883 41.98,-98.902 98.64,-98.902 56.75,0 98.15,41.992 98.15,98.902 z m -94.98,139.68 c 80.66,0 138.02,-59.516 138.02,-139.68 0,-79.703 -57.36,-139.672 -138.02,-139.672 -41.87,0 -78.03,16.61 -102.9,43.95 l -5.7,-38.09 h -32.63 v 363.152 h 42.13 V 520.926 c 24.68,24.902 59.31,39.781 99.09,39.781 l 0.01,0.004" />
      <path
         id="path284"
         style="fill:#ffffff;fill-opacity:1;fill-rule:nonzero;stroke:none"
         d="m 1899.68,650.359 h 42.13 v -363.14 h -42.13 v 363.14" />
      <path
         id="path286"
         style="fill:#ffffff;fill-opacity:1;fill-rule:nonzero;stroke:none"
         d="m 2141.92,520.84 c -48.59,0 -84.51,-30.578 -93.22,-77.168 h 185.86 c -9.05,47.633 -45.27,77.168 -92.63,77.168 z m 133.96,-116.129 h -228.15 c 6.62,-49.563 43.51,-82.133 94.2,-82.133 37.02,0 66.81,17.313 83.32,46.223 h 44.42 c -22.64,-55.211 -69.7,-87.442 -127.74,-87.442 -77.64,0 -136.49,59.969 -136.49,139.711 0,79.668 58.85,139.637 136.49,139.637 81.2,0 134.86,-62.598 134.86,-140.766 0,-5.07 -0.46,-10.171 -0.91,-15.23" />
      <path
         id="path288"
         style="fill:#ffffff;fill-opacity:1;fill-rule:nonzero;stroke:none"
         d="M 0,86.1914 V 168.32 H 28.5313 V 87.5117 c 0,-16.4609 10.7226,-26.8711 25.8906,-26.8711 15.1367,0 25.8633,10.4102 25.8633,26.8711 V 168.32 H 108.813 V 86.1914 C 108.813,55.3203 85.5352,33.75 54.4219,33.75 23.2773,33.75 0,55.3203 0,86.1914" />
      <path
         id="path290"
         style="fill:#ffffff;fill-opacity:1;fill-rule:nonzero;stroke:none"
         d="M 221.582,98.1992 V 36.6289 H 194.109 V 93.75 c 0,15.359 -5.828,22.77 -17.718,22.77 -14.161,0 -22.797,-10.149 -22.797,-26.5005 V 36.6289 H 126.129 V 138.219 h 18.848 l 5.351,-12.559 c 7.692,9.16 19.832,14.969 33.66,14.969 23.157,0 37.594,-16.707 37.594,-42.4298" />
      <path
         id="path292"
         style="fill:#ffffff;fill-opacity:1;fill-rule:nonzero;stroke:none"
         d="m 239.277,177.301 h 27.364 V 151.77 h -27.364 z m -0.047,-39.082 h 27.465 V 36.6289 H 239.23 V 138.219" />
      <path
         id="path294"
         style="fill:#ffffff;fill-opacity:1;fill-rule:nonzero;stroke:none"
         d="M 380.637,138.219 340.27,36.6289 H 314.922 L 273.578,138.219 h 29.305 l 24.867,-68.0706 24.422,68.0706 h 28.465" />
      <path
         id="path296"
         style="fill:#ffffff;fill-opacity:1;fill-rule:nonzero;stroke:none"
         d="m 406.059,98.4883 h 49.234 c -3.883,12.4217 -12.805,19.1597 -25.133,19.1597 -12.226,0 -20.914,-7.136 -24.101,-19.1597 z m 76.168,-18.7578 h -76.891 c 2.391,-13.8711 11.5,-21.5 24.824,-21.5 9.547,0 17.379,4.5078 21.555,11.7812 h 28.871 C 473.191,47.8594 453.75,33.75 430.168,33.75 c -30,0 -52.703,23.2305 -52.703,53.668 0,30.602 22.547,53.684 52.703,53.684 31.195,0 52.59,-24.051 52.59,-53.3207 0,-2.6797 -0.192,-5.3711 -0.531,-8.0508" />
      <path
         id="path298"
         style="fill:#ffffff;fill-opacity:1;fill-rule:nonzero;stroke:none"
         d="m 555.785,138.781 v -25.902 h -11.922 c -15.48,0 -21.601,-6.867 -21.601,-23.4688 V 36.6289 H 494.797 V 138.219 h 17.609 l 4.883,-12.438 c 7.238,8.981 16.418,13 29.465,13 h 9.031" />
      <path
         id="path300"
         style="fill:#ffffff;fill-opacity:1;fill-rule:nonzero;stroke:none"
         d="m 599.199,33.7617 c -25.5,0 -42.535,14.5469 -42.676,36.3281 h 26.79 c 0.132,-9.0507 7.062,-13.5703 16.914,-13.5703 7.625,0 14.453,3.4493 14.453,10.25 0,6.9414 -8.813,9.0391 -19.551,10.8399 -16.234,2.6992 -36.875,7.0508 -36.875,30.9926 0,19.226 16.351,32.5 40.871,32.5 24.527,0 40.625,-13.653 40.73,-33.954 h -26.07 c -0.101,8.071 -5.762,12.051 -15.344,12.051 -8.546,0 -13.593,-3.91 -13.593,-9.73 0,-6.77 8.668,-8.34 19.222,-10.2581 16.575,-2.9804 37.731,-6.4804 37.731,-31.2304 C 641.801,47.25 624.855,33.75 599.199,33.75 v 0.0117" />
      <path
         id="path302"
         style="fill:#ffffff;fill-opacity:1;fill-rule:nonzero;stroke:none"
         d="m 654.43,177.301 h 27.363 V 151.77 H 654.43 Z m -0.051,-39.082 h 27.469 V 36.6289 H 654.379 V 138.219" />
      <path
         id="path304"
         style="fill:#ffffff;fill-opacity:1;fill-rule:nonzero;stroke:none"
         d="M 762.828,61.0781 V 36.6289 h -19.515 c -22.356,0 -36.09,13.7305 -36.09,36.2695 v 43.2426 h -18.371 v 5.929 l 40.128,42.66 h 5.25 v -26.511 h 28.032 V 116.141 H 734.691 V 76.5508 c 0,-9.8203 5.645,-15.4727 15.653,-15.4727 h 12.484" />
      <path
         id="path306"
         style="fill:#ffffff;fill-opacity:1;fill-rule:nonzero;stroke:none"
         d="m 827.348,149.461 h -20.782 l 10.266,28.598 h 29.207 z M 795.055,98.4883 h 49.23 c -3.887,12.4217 -12.805,19.1597 -25.129,19.1597 -12.23,0 -20.914,-7.136 -24.101,-19.1597 z m 76.691,-10.707 c 0,-2.6797 -0.183,-5.3711 -0.523,-8.0508 h -76.899 c 2.391,-13.8711 11.504,-21.5 24.832,-21.5 9.543,0 17.375,4.5078 21.551,11.7812 h 28.867 C 862.188,47.8594 842.742,33.75 819.156,33.75 c -29.996,0 -52.695,23.2305 -52.695,53.668 0,30.602 22.543,53.684 52.695,53.684 31.199,0 52.598,-24.051 52.598,-53.3207 h -0.008" />
      <path
         id="path308"
         style="fill:#ffffff;fill-opacity:1;fill-rule:nonzero;stroke:none"
         d="m 1050.98,105.398 c -0.14,-41.2691 -27.69,-71.648 -67.265,-71.648 -38.758,0 -68.211,29.1016 -68.211,68.57 0,39.442 28.68,68.848 67.68,68.848 32.716,0 59.896,-20.719 66.036,-50.168 h -29.37 c -5.64,14.129 -19.58,22.969 -36.135,22.969 -23.328,0 -39.34,-17.039 -39.34,-41.649 0,-24.3708 15.602,-41.3708 39.34,-41.3708 17.005,0 31.785,9.0196 36.655,22.5899 h -39.475 v 21.8589 h 70.085" />
      <path
         id="path310"
         style="fill:#ffffff;fill-opacity:1;fill-rule:nonzero;stroke:none"
         d="m 1123.94,138.781 v -25.902 h -11.93 c -15.48,0 -21.6,-6.867 -21.6,-23.4688 V 36.6289 h -27.47 V 138.219 h 17.62 l 4.88,-12.438 c 7.24,8.981 16.42,13 29.46,13 h 9.04" />
      <path
         id="path312"
         style="fill:#ffffff;fill-opacity:1;fill-rule:nonzero;stroke:none"
         d="m 1151.67,98.4883 h 49.23 c -3.88,12.4217 -12.8,19.1597 -25.12,19.1597 -12.23,0 -20.92,-7.136 -24.11,-19.1597 z m 76.17,-18.7578 h -76.89 c 2.38,-13.8711 11.5,-21.5 24.83,-21.5 9.54,0 17.37,4.5078 21.55,11.7812 h 28.87 C 1218.8,47.8594 1199.36,33.75 1175.78,33.75 c -30,0 -52.7,23.2305 -52.7,53.668 0,30.602 22.54,53.684 52.7,53.684 31.2,0 52.59,-24.051 52.59,-53.3207 0,-2.6797 -0.19,-5.3711 -0.53,-8.0508" />
      <path
         id="path314"
         style="fill:#ffffff;fill-opacity:1;fill-rule:nonzero;stroke:none"
         d="M 1335.86,98.1992 V 36.6289 h -27.47 V 93.75 c 0,15.359 -5.83,22.77 -17.72,22.77 -14.16,0 -22.79,-10.149 -22.79,-26.5005 V 36.6289 h -27.47 V 138.219 h 18.84 l 5.35,-12.559 c 7.7,9.16 19.84,14.969 33.67,14.969 23.15,0 37.59,-16.707 37.59,-42.4298" />
      <path
         id="path316"
         style="fill:#ffffff;fill-opacity:1;fill-rule:nonzero;stroke:none"
         d="m 1428.83,87.418 c 0,16.461 -11.24,27.852 -27.08,27.852 -15.83,0 -27.07,-11.391 -27.07,-27.852 0,-16.4492 11.24,-27.8399 27.07,-27.8399 15.84,0 27.08,11.3907 27.08,27.8399 z m -81.99,0 c 0,30.832 23.45,53.684 54.91,53.684 31.32,0 54.92,-22.891 54.92,-53.684 0,-30.6289 -23.6,-53.668 -54.92,-53.668 -31.46,0 -54.91,23.0391 -54.91,53.668" />
      <path
         id="path318"
         style="fill:#ffffff;fill-opacity:1;fill-rule:nonzero;stroke:none"
         d="m 1549.63,87.418 c 0,15.961 -11.7,27.852 -27.65,27.852 -15.96,0 -27.69,-11.918 -27.69,-27.852 0,-15.7266 11.73,-27.6875 27.69,-27.6875 15.95,0 27.65,11.8906 27.65,27.6875 z m 28,0 c 0,-30.7461 -22.43,-53.668 -53.41,-53.668 -12.34,0 -23.31,4.1797 -31.81,11.3711 l -3.25,-8.4922 h -20.29 V 174.84 h 27.47 v -42.121 c 7.84,5.34 17.36,8.371 27.88,8.371 30.98,0 53.41,-22.879 53.41,-53.672" />
      <path
         id="path320"
         style="fill:#ffffff;fill-opacity:1;fill-rule:nonzero;stroke:none"
         d="m 1589.88,174.84 h 27.47 V 36.6289 h -27.47 V 174.84" />
      <path
         id="path322"
         style="fill:#ffffff;fill-opacity:1;fill-rule:nonzero;stroke:none"
         d="m 1658.09,98.4883 h 49.24 c -3.89,12.4217 -12.8,19.1597 -25.14,19.1597 -12.22,0 -20.91,-7.136 -24.1,-19.1597 z m 76.17,-18.7578 h -76.89 c 2.39,-13.8711 11.5,-21.5 24.82,-21.5 9.55,0 17.39,4.5078 21.56,11.7812 h 28.87 C 1725.23,47.8594 1705.79,33.75 1682.2,33.75 c -30,0 -52.7,23.2305 -52.7,53.668 0,30.602 22.55,53.684 52.7,53.684 31.19,0 52.59,-24.051 52.59,-53.3207 0,-2.6797 -0.19,-5.3711 -0.53,-8.0508" />
      <path
         id="path324"
         style="fill:#ffffff;fill-opacity:1;fill-rule:nonzero;stroke:none"
         d="m 1815.99,86.4297 h 34.55 l -17.36,47.0903 z m 43.52,-24.8281 h -52.42 l -9.03,-24.9727 h -30.23 l 51.61,131.6911 h 26.9 l 53.28,-131.6911 h -30.91 l -9.2,24.9727" />
      <path
         id="path326"
         style="fill:#ffffff;fill-opacity:1;fill-rule:nonzero;stroke:none"
         d="m 1906.98,174.84 h 27.47 V 36.6289 h -27.47 V 174.84" />
      <path
         id="path328"
         style="fill:#ffffff;fill-opacity:1;fill-rule:nonzero;stroke:none"
         d="m 2034.1,87.4297 c 0,15.9493 -11.69,27.8403 -27.66,27.8403 -15.96,0 -27.69,-11.918 -27.69,-27.8403 0,-15.9297 11.73,-27.8516 27.69,-27.8516 15.97,0 27.66,11.8907 27.66,27.8516 z m -25.41,53.6723 c 30.59,0 53.22,-22.891 53.22,-53.6723 0,-30.7578 -22.63,-53.8281 -53.22,-53.8281 -10.52,0 -20.07,3.0976 -27.95,8.5468 V 0 h -27.47 v 138.219 h 18.16 l 4.7,-9.239 c 8.62,7.649 19.89,12.11 32.56,12.11 v 0.012" />
      <path
         id="path330"
         style="fill:#ffffff;fill-opacity:1;fill-rule:nonzero;stroke:none"
         d="m 2096.01,98.4883 h 49.24 c -3.89,12.4217 -12.8,19.1597 -25.14,19.1597 -12.22,0 -20.91,-7.136 -24.1,-19.1597 z m 76.17,-18.7578 h -76.89 c 2.39,-13.8711 11.5,-21.5 24.82,-21.5 9.55,0 17.39,4.5078 21.56,11.7812 h 28.87 C 2163.15,47.8594 2143.71,33.75 2120.12,33.75 c -30,0 -52.7,23.2305 -52.7,53.668 0,30.602 22.55,53.684 52.7,53.684 31.19,0 52.59,-24.051 52.59,-53.3207 0,-2.6797 -0.19,-5.3711 -0.53,-8.0508" />
      <path
         id="path332"
         style="fill:#ffffff;fill-opacity:1;fill-rule:nonzero;stroke:none"
         d="m 2220.83,33.7617 c -25.49,0 -42.52,14.5469 -42.67,36.3281 h 26.79 c 0.13,-9.0507 7.07,-13.5703 16.91,-13.5703 7.63,0 14.45,3.4493 14.45,10.25 0,6.9414 -8.81,9.0391 -19.55,10.8399 -16.23,2.6992 -36.87,7.0508 -36.87,30.9926 0,19.226 16.36,32.5 40.88,32.5 24.52,0 40.62,-13.653 40.72,-33.954 h -26.07 c -0.1,8.071 -5.76,12.051 -15.34,12.051 -8.55,0 -13.59,-3.91 -13.59,-9.73 0,-6.77 8.66,-8.34 19.22,-10.2581 16.57,-2.9804 37.73,-6.4804 37.73,-31.2304 0,-20.7305 -16.95,-34.2305 -42.61,-34.2305 v 0.0117" />
      <path
         id="path334"
         style="fill:#ffffff;fill-opacity:1;fill-rule:nonzero;stroke:none"
         d="m 1881.44,985.195 c 47.31,-81.949 93.58,-162.105 140.7,-243.738 -94.22,0 -186.69,0 -281.37,0 47.09,81.606 93.44,161.914 140.67,243.738" />
      <path
         id="path336"
         style="fill:#ffffff;fill-opacity:1;fill-rule:nonzero;stroke:none"
         d="m 1881.45,1488.81 c 123.76,-214.38 246.52,-427.23 370.28,-641.595 -6.29,0 -153.51,0 -153.51,0 -66.65,116.414 -141.33,245.705 -208.4,361.875 -2.5,4.33 -5.13,8.54 -8.37,13.92 -3.25,-5.38 -5.87,-9.59 -8.37,-13.92 -67.07,-116.17 -141.75,-245.461 -208.4,-361.875 0,0 -147.22,0 -153.51,0 123.76,214.365 246.51,427.215 370.28,641.595" />
    </g>
  </g>
</svg>
